<svg id="Calque_1" data-name="Calque 1" xmlns="http://www.w3.org/2000/svg" viewBox="0 0 2267.72 850.39"><defs><style>.cls-1{fill:#fff;}</style></defs><path class="cls-1" d="M647.58,443.71a22.72,22.72,0,0,0-22.76,19.61s-.07,11.73-11.18,11.1a10.73,10.73,0,0,1-10.57-10.87,3.07,3.07,0,0,0,0-.34A22.69,22.69,0,0,0,581,443.54c-18.36-.83-23,19.6-23,19.6l-4.29,11.61c-19.66,62.75-78.12,108.36-147.37,108.36a154.57,154.57,0,0,1-38.65-304.23v-.24a22.64,22.64,0,0,0,.05-44.88c-.1,0-.21,0-.33,0a10.71,10.71,0,0,1-10.84-10.58C356,212.09,367.69,212,367.69,212a22.69,22.69,0,0,0,19.68-22.68c-.13-11.43-6.77-23.41-19.68-22.21-5.68.68-8.9.93-12.77,1.91C233.42,193,141.73,300,141.73,428.52c0,146.13,118.48,264.61,264.61,264.61,109.24,0,202.92-66.21,243.28-160.68a261.24,261.24,0,0,0,18.15-56.24c1-3.85,1.25-7.07,2-12.77,1.25-12.89-10.73-19.57-22.14-19.73"/><polygon class="cls-1" points="1275.36 587.81 1253.95 544.12 1238.87 544.12 1238.87 612.23 1250.93 612.23 1250.93 563.58 1271.08 605.23 1279.54 605.23 1299.69 563.58 1299.79 612.23 1311.66 612.23 1311.66 544.12 1296.67 544.12 1275.36 587.81"/><path class="cls-1" d="M1387.06,544.12l-29.87,68.11h13.52l6-14.4H1410l6,14.4h14l-29.48-68.11Zm-5.64,42.52L1393.48,558l11.87,28.61Z"/><path class="cls-1" d="M1531.55,567.56c0-15-10-23.44-27.64-23.44H1475.5v68.11h13v-20h15.37a19.12,19.12,0,0,0,2.44-.1l11.77,20.14H1533l-15-22.57C1526.79,586,1531.55,578.27,1531.55,567.56Zm-27.64,13.14h-15.37V555.5h15.37c9.74,0,15.18,4.09,15.18,12.46C1519.09,576.52,1513.65,580.7,1503.91,580.7Z"/><polygon class="cls-1" points="1642.08 544.12 1626.9 544.12 1596.06 577.39 1596.06 544.12 1583.01 544.12 1583.01 612.23 1596.06 612.23 1596.06 595.11 1606.95 583.04 1628.17 612.23 1643.93 612.23 1616.1 572.92 1642.08 544.12"/><polygon class="cls-1" points="1703.86 583.72 1736.95 583.72 1736.95 572.33 1703.86 572.33 1703.86 555.5 1740.75 555.5 1740.75 544.12 1690.82 544.12 1690.82 612.23 1741.91 612.23 1741.91 600.85 1703.86 600.85 1703.86 583.72"/><polygon class="cls-1" points="1784.71 555.7 1805.93 555.7 1805.93 612.23 1819.07 612.23 1819.07 555.7 1840.28 555.7 1840.28 544.12 1784.71 544.12 1784.71 555.7"/><rect class="cls-1" x="1886.68" y="544.12" width="13.04" height="68.12"/><polygon class="cls-1" points="2001.11 590.73 1965.98 544.12 1953.62 544.12 1953.62 612.23 1966.37 612.23 1966.37 565.72 2001.4 612.23 2013.76 612.23 2013.76 544.12 2001.11 544.12 2001.11 590.73"/><path class="cls-1" d="M2113.88,596.86a31.41,31.41,0,0,1-14.7,4.28c-13.13,0-23.55-10-23.55-23s10.32-22.87,23.46-22.87a29.16,29.16,0,0,1,19.26,7.69l7.4-9.53a41.84,41.84,0,0,0-26.66-9.74c-20.83,0-36.79,14.9-36.79,34.45s15.67,34.65,36,34.65a47.65,47.65,0,0,0,27-8.86V578.37h-11.38Z"/><path class="cls-1" d="M421.73,157.27a19.92,19.92,0,1,1-19.92,19.93,19.93,19.93,0,0,1,19.92-19.93"/><path class="cls-1" d="M450.81,195.9a19.92,19.92,0,1,1-19.93,19.92,19.92,19.92,0,0,1,19.93-19.92"/><path class="cls-1" d="M616.38,416a17.13,17.13,0,1,1-17.13,17.13A17.13,17.13,0,0,1,616.38,416"/><path class="cls-1" d="M481.06,234.94a19.92,19.92,0,1,1-19.93,19.92,19.91,19.91,0,0,1,19.93-19.92"/><path class="cls-1" d="M421.73,234.94a19.92,19.92,0,1,1-19.92,19.92,19.92,19.92,0,0,1,19.92-19.92"/><path class="cls-1" d="M508.83,195.9a19.92,19.92,0,1,1-19.92,19.92,19.92,19.92,0,0,1,19.92-19.92"/><path class="cls-1" d="M537.91,234.94A19.92,19.92,0,1,1,518,254.86a19.92,19.92,0,0,1,19.92-19.92"/><path class="cls-1" d="M564.5,195.9a19.92,19.92,0,1,1-19.92,19.92A19.92,19.92,0,0,1,564.5,195.9"/><path class="cls-1" d="M591.54,232.8a19.92,19.92,0,1,1-19.92,19.93,19.93,19.93,0,0,1,19.92-19.93"/><path class="cls-1" d="M576.45,277.55a19.92,19.92,0,1,1-19.93,19.92,19.92,19.92,0,0,1,19.93-19.92"/><path class="cls-1" d="M576.47,334.4a19.92,19.92,0,1,1-19.92,19.92,19.92,19.92,0,0,1,19.92-19.92"/><path class="cls-1" d="M616.38,310.77a19.92,19.92,0,1,1-19.93,19.92,19.91,19.91,0,0,1,19.93-19.92"/><path class="cls-1" d="M623.28,264A19.92,19.92,0,1,1,603.35,284,19.92,19.92,0,0,1,623.28,264"/><path class="cls-1" d="M661.17,288.78a19.92,19.92,0,1,1-19.93,19.92,19.91,19.91,0,0,1,19.93-19.92"/><path class="cls-1" d="M656.16,339A19.92,19.92,0,1,1,636.23,359,19.92,19.92,0,0,1,656.16,339"/><path class="cls-1" d="M616.38,367.5a19.92,19.92,0,1,1-19.93,19.92,19.91,19.91,0,0,1,19.93-19.92"/><path class="cls-1" d="M576.45,393.29a19.92,19.92,0,1,1-19.93,19.93,19.92,19.92,0,0,1,19.93-19.93"/><path class="cls-1" d="M656.16,393.29a19.92,19.92,0,1,1-19.93,19.93,19.92,19.92,0,0,1,19.93-19.93"/><path class="cls-1" d="M481.06,157.27a19.92,19.92,0,1,1-19.93,19.93,19.92,19.92,0,0,1,19.93-19.93"/><path class="cls-1" d="M537.91,157.27A19.92,19.92,0,1,1,518,177.2a19.93,19.93,0,0,1,19.92-19.93"/><path class="cls-1" d="M666.8,188.36a17.13,17.13,0,1,1-17.13,17.13,17.13,17.13,0,0,1,17.13-17.13"/><path class="cls-1" d="M623.28,200.89a19.92,19.92,0,1,1-19.92,19.92,19.92,19.92,0,0,1,19.92-19.92"/><path class="cls-1" d="M664,234.94a19.92,19.92,0,1,1-19.92,19.92A19.92,19.92,0,0,1,664,234.94"/><path class="cls-1" d="M591.54,157.27a19.92,19.92,0,1,1-19.92,19.93,19.93,19.93,0,0,1,19.92-19.93"/><path class="cls-1" d="M639,157.27a17.14,17.14,0,1,1-17.13,17.12A17.12,17.12,0,0,1,639,157.27"/><path class="cls-1" d="M398.49,200.85A17.13,17.13,0,1,1,381.36,218a17.12,17.12,0,0,1,17.13-17.12"/><path class="cls-1" d="M1857.61,341.86c-26.34-7.65-41.26-13.6-41.26-30.31,0-12.47,10.31-21,29-21,16.79,0,33.92,8.65,45,23.3a9.09,9.09,0,0,0,12.64,2.07l17.12-12.56a9,9,0,0,0,2.11-12.35c-14.92-21.29-39.57-38.13-76.64-38.13-43.17,0-72.49,23.52-72.49,62.6,0,43.89,37.47,53.53,73.3,64,26.33,7.64,40.72,14.44,40.72,30.3,0,16.15-14.66,24.08-35,24.08-20.19,0-39.66-10.91-51.47-30.8a9,9,0,0,0-13-2.9l-17.59,12.85a9.06,9.06,0,0,0-2.47,11.81C1783.07,452,1810,470.44,1850,470.44c55.92,0,80.35-30,80.35-63.72C1930.36,363.38,1892.9,351.77,1857.61,341.86Z"/><path class="cls-1" d="M1453.82,257.56h-47.49a9,9,0,0,0-8.54,6.3l-46.55,150.19h-.63l-49.93-150.36a9,9,0,0,0-8.49-6.13h-46a9,9,0,0,0-9,8.95v195a9,9,0,0,0,9,8.95H1268a9,9,0,0,0,8.94-8.95V322.87h.63c5,24.45,8.19,33.65,13.54,49.76l32.54,91.85a8.94,8.94,0,0,0,8.43,6h32.73a9,9,0,0,0,8.43-5.94L1406,372.63c5-15.54,9.45-29.05,12.92-47.47h.63V461.49a9,9,0,0,0,9,8.95h25.28a9,9,0,0,0,9-8.95v-195A9,9,0,0,0,1453.82,257.56Z"/><path class="cls-1" d="M2117.09,429.47h-94.66v-51.7h62.35a8.91,8.91,0,0,0,8.9-8.9V350.42a8.91,8.91,0,0,0-8.9-8.9h-62.35V296.85h94.32a8.91,8.91,0,0,0,8.9-8.9V267.53a8.91,8.91,0,0,0-8.9-8.9H1984.31a8.9,8.9,0,0,0-8.9,8.9V457.66a8.89,8.89,0,0,0,8.9,8.9h132.78a8.89,8.89,0,0,0,8.89-8.9V438.37A8.89,8.89,0,0,0,2117.09,429.47Z"/><path class="cls-1" d="M1617.88,253.84A108.76,108.76,0,1,0,1726.64,362.6,108.76,108.76,0,0,0,1617.88,253.84Zm0,173.07a64.31,64.31,0,1,1,64.31-64.31A64.32,64.32,0,0,1,1617.88,426.91Z"/><path class="cls-1" d="M1117.87,341.86c-26.34-7.65-41.26-13.6-41.26-30.31,0-12.47,10.32-21,29-21,16.79,0,33.92,8.65,45,23.3a9.09,9.09,0,0,0,12.64,2.07l17.12-12.56a9,9,0,0,0,2.11-12.35c-14.92-21.29-39.57-38.13-76.64-38.13-43.16,0-72.48,23.52-72.48,62.6,0,43.89,37.46,53.53,73.29,64,26.33,7.64,40.72,14.44,40.72,30.3,0,16.15-14.66,24.08-35,24.08-20.19,0-39.65-10.91-51.47-30.8a9,9,0,0,0-13-2.9l-17.58,12.85a9.05,9.05,0,0,0-2.48,11.81c15.44,27.15,42.41,45.57,82.38,45.57,55.92,0,80.35-30,80.35-63.72C1190.62,363.38,1153.16,351.77,1117.87,341.86Z"/><path class="cls-1" d="M878.14,253.84A108.76,108.76,0,1,0,986.9,362.6,108.76,108.76,0,0,0,878.14,253.84Zm0,173.07a64.31,64.31,0,1,1,64.31-64.31A64.32,64.32,0,0,1,878.14,426.91Z"/></svg>